REM DIRINDEX 1\2,1\3,1\4,1\5,1\6
REM DIRNAME "folder01","folder02","folder03","folder04","folder05","folder06"
TITLE ""
FILE "Disc3Track51.mp3" MP3
  TRACK 01 AUDIO
    TITLE "3:cjc161_05681"
    INDEX 01 00:00:00
  TRACK 02 AUDIO
    TITLE "4:cjc161_05682"
    INDEX 01 00:00:67
  TRACK 03 AUDIO
    TITLE "5:cjc161_05683"
    INDEX 01 00:02:15
  TRACK 04 AUDIO
    TITLE "6:cjc161_05684"
    INDEX 01 00:03:18
  TRACK 05 AUDIO
    TITLE "0:"
    INDEX 01 00:06:48
  TRACK 06 AUDIO
    TITLE "3:cjc161_05685"
    INDEX 01 00:07:04
  TRACK 07 AUDIO
    TITLE "4:cjc161_05686"
    INDEX 01 00:08:20
  TRACK 08 AUDIO
    TITLE "5:cjc161_05687"
    INDEX 01 00:09:13
  TRACK 09 AUDIO
    TITLE "0:"
    INDEX 01 00:10:28
  TRACK 10 AUDIO
    TITLE "3:cjc161_05688"
    INDEX 01 00:10:67
  TRACK 11 AUDIO
    TITLE "4:cjc161_05689"
    INDEX 01 00:12:10
  TRACK 12 AUDIO
    TITLE "5:cjc161_05690"
    INDEX 01 00:13:13
  TRACK 13 AUDIO
    TITLE "6:cjc161_05691"
    INDEX 01 00:14:26
  TRACK 14 AUDIO
    TITLE "0:"
    INDEX 01 00:16:29
  TRACK 15 AUDIO
    TITLE "3:cjc161_05692"
    INDEX 01 00:16:68
  TRACK 16 AUDIO
    TITLE "4:cjc161_05693"
    INDEX 01 00:18:32
  TRACK 17 AUDIO
    TITLE "5:cjc161_05694"
    INDEX 01 00:20:46
  TRACK 18 AUDIO
    TITLE "6:cjc161_05695"
    INDEX 01 00:22:10
  TRACK 19 AUDIO
    TITLE "0:"
    INDEX 01 00:27:23
  TRACK 20 AUDIO
    TITLE "3:cjc161_05696"
    INDEX 01 00:27:54
  TRACK 21 AUDIO
    TITLE "4:cjc161_05697"
    INDEX 01 00:29:02
  TRACK 22 AUDIO
    TITLE "5:cjc161_05698"
    INDEX 01 00:30:68
  TRACK 23 AUDIO
    TITLE "0:"
    INDEX 01 00:32:18
  TRACK 24 AUDIO
    TITLE "3:cjc161_05699"
    INDEX 01 00:32:57
  TRACK 25 AUDIO
    TITLE "4:cjc161_05700"
    INDEX 01 00:34:17
  TRACK 26 AUDIO
    TITLE "5:cjc161_05701"
    INDEX 01 00:35:18
  TRACK 27 AUDIO
    TITLE "0:"
    INDEX 01 00:36:51
  TRACK 28 AUDIO
    TITLE "3:cjc161_05702"
    INDEX 01 00:37:15
  TRACK 29 AUDIO
    TITLE "4:cjc161_05703"
    INDEX 01 00:38:44
  TRACK 30 AUDIO
    TITLE "5:cjc161_05704"
    INDEX 01 00:40:33
  TRACK 31 AUDIO
    TITLE "6:cjc161_05705"
    INDEX 01 00:41:58
  TRACK 32 AUDIO
    TITLE "0:"
    INDEX 01 00:44:66
  TRACK 33 AUDIO
    TITLE "3:cjc161_05706"
    INDEX 01 00:45:23
  TRACK 34 AUDIO
    TITLE "4:cjc161_05707"
    INDEX 01 00:46:38
  TRACK 35 AUDIO
    TITLE "5:cjc161_05708"
    INDEX 01 00:47:49
  TRACK 36 AUDIO
    TITLE "6:cjc161_05709"
    INDEX 01 00:48:62
  TRACK 37 AUDIO
    TITLE "0:"
    INDEX 01 00:52:17
  TRACK 38 AUDIO
    TITLE "3:cjc161_05710"
    INDEX 01 00:52:46
  TRACK 39 AUDIO
    TITLE "4:cjc161_05711"
    INDEX 01 00:54:02
  TRACK 40 AUDIO
    TITLE "5:cjc161_05712"
    INDEX 01 00:54:73
  TRACK 41 AUDIO
    TITLE "6:cjc161_05713"
    INDEX 01 00:56:25
  TRACK 42 AUDIO
    TITLE "0:"
    INDEX 01 00:58:31
  TRACK 43 AUDIO
    TITLE "3:cjc161_05714"
    INDEX 01 00:58:63
  TRACK 44 AUDIO
    TITLE "4:cjc161_05715"
    INDEX 01 01:00:12
  TRACK 45 AUDIO
    TITLE "5:cjc161_05716"
    INDEX 01 01:01:43
  TRACK 46 AUDIO
    TITLE "0:"
    INDEX 01 01:02:68
  TRACK 47 AUDIO
    TITLE "3:cjc161_05717"
    INDEX 01 01:03:32
  TRACK 48 AUDIO
    TITLE "4:cjc161_05718"
    INDEX 01 01:04:63
  TRACK 49 AUDIO
    TITLE "5:cjc161_05719"
    INDEX 01 01:05:67
  TRACK 50 AUDIO
    TITLE "6:cjc161_05720"
    INDEX 01 01:07:22
  TRACK 51 AUDIO
    TITLE "0:"
    INDEX 01 01:09:58
  TRACK 52 AUDIO
    TITLE "3:cjc161_05721"
    INDEX 01 01:10:13
  TRACK 53 AUDIO
    TITLE "4:cjc161_05722"
    INDEX 01 01:11:32
  TRACK 54 AUDIO
    TITLE "5:cjc161_05723"
    INDEX 01 01:14:26
  TRACK 55 AUDIO
    TITLE "6:cjc161_05724"
    INDEX 01 01:15:45
  TRACK 56 AUDIO
    TITLE "0:"
    INDEX 01 01:19:47
  TRACK 57 AUDIO
    TITLE "3:cjc161_05725"
    INDEX 01 01:20:03
  TRACK 58 AUDIO
    TITLE "4:cjc161_05726"
    INDEX 01 01:21:24
  TRACK 59 AUDIO
    TITLE "5:cjc161_05727"
    INDEX 01 01:23:74
  TRACK 60 AUDIO
    TITLE "6:cjc161_05728"
    INDEX 01 01:25:20
  TRACK 61 AUDIO
    TITLE "0:"
    INDEX 01 01:28:73
  TRACK 62 AUDIO
    TITLE "3:cjc161_05729"
    INDEX 01 01:29:30
  TRACK 63 AUDIO
    TITLE "4:cjc161_05730"
    INDEX 01 01:30:53
  TRACK 64 AUDIO
    TITLE "5:cjc161_05731"
    INDEX 01 01:33:59
  TRACK 65 AUDIO
    TITLE "6:cjc161_05732"
    INDEX 01 01:35:03
  TRACK 66 AUDIO
    TITLE "0:"
    INDEX 01 01:37:53
  TRACK 67 AUDIO
    TITLE "3:cjc161_05733"
    INDEX 01 01:38:09
  TRACK 68 AUDIO
    TITLE "4:cjc161_05734"
    INDEX 01 01:39:44
  TRACK 69 AUDIO
    TITLE "5:cjc161_05735"
    INDEX 01 01:40:45
  TRACK 70 AUDIO
    TITLE "6:cjc161_05736"
    INDEX 01 01:42:01
  TRACK 71 AUDIO
    TITLE "0:"
    INDEX 01 01:45:62
